<svg width="60" height="60" viewBox="0 0 60 60" fill="none" xmlns="http://www.w3.org/2000/svg">
<path d="M15 50C13.6739 50 12.4021 49.4732 11.4645 48.5355C10.5268 47.5979 10 46.3261 10 45V20C10 18.6739 10.5268 17.4021 11.4645 16.4645C12.4021 15.5268 13.6739 15 15 15H45C46.3261 15 47.5979 15.5268 48.5355 16.4645C49.4732 17.4021 50 18.6739 50 20V45C50 46.3261 49.4732 47.5979 48.5355 48.5355C47.5979 49.4732 46.3261 50 45 50" stroke="#3177D8" stroke-width="2" stroke-linecap="round" stroke-linejoin="round"/>
<path d="M20.2407 49.8793V10.6625C20.2407 9.17662 20.7548 7.75162 21.6699 6.70097C22.585 5.65031 23.8261 5.06006 25.1202 5.06006H34.8793C36.1734 5.06006 37.4145 5.65031 38.3296 6.70097C39.2447 7.75162 39.7588 9.17662 39.7588 10.6625V49.8793" stroke="#3177D8" stroke-width="2" stroke-linecap="round" stroke-linejoin="round"/>
<path d="M13.7349 49.8794L44.8192 49.8794" stroke="#3177D8" stroke-width="2" stroke-linecap="round" stroke-linejoin="round"/>
</svg>
