<svg width="74" height="74" viewBox="0 0 74 74" fill="none" xmlns="http://www.w3.org/2000/svg">
<g clip-path="url(#clip0_345_19655)">
<path d="M29.0654 26.1666L29.0757 26.1667H29.0861H33.4444V47.8334H29.0861H29.0715L29.057 47.8337C26.4107 47.885 23.8305 47.0045 21.7675 45.3462C19.7046 43.6879 18.2901 41.3572 17.7714 38.7617L17.5304 37.5556H16.3005H5.61108V36.4445H16.3211H17.5459L17.7908 35.2444C18.3191 32.6552 19.7344 30.3316 21.7927 28.6743C23.851 27.0171 26.4231 26.1302 29.0654 26.1666Z" stroke="#3177D8" stroke-width="3"/>
<path d="M56.5587 35.2442L56.8035 36.4444H58.0284H68.389V37.5555H58.0079H56.778L56.537 38.7616C56.0183 41.3571 54.6039 43.6878 52.5409 45.3461C50.478 47.0044 47.8978 47.8849 45.2514 47.8336L45.2369 47.8333H45.2223H40.5557V26.1666H45.2223H45.2351L45.2478 26.1664C47.8963 26.1215 50.477 27.0045 52.5428 28.6624C54.6086 30.3204 56.0293 32.6488 56.5587 35.2442Z" stroke="#3177D8" stroke-width="3"/>
</g>
<defs>
<clipPath id="clip0_345_19655">
<rect width="74" height="74" fill="white"/>
</clipPath>
</defs>
</svg>
