<svg width="56" height="56" viewBox="0 0 56 56" fill="none" xmlns="http://www.w3.org/2000/svg">
<path d="M7.49992 23.8667C14.7978 24.3901 21.803 26.9672 27.7038 31.3054L27.9999 31.5232L28.2961 31.3054C34.1968 26.9672 41.202 24.3901 48.4999 23.8667V30.2399V30.7389L48.9989 30.7399C50.1061 30.7421 51.1671 31.1839 51.9486 31.9682C52.7302 32.7525 53.1683 33.815 53.1666 34.9222V34.9229V37.2656V37.2663C53.1683 38.3735 52.7302 39.436 51.9486 40.2203C51.1671 41.0046 50.1061 41.4464 48.9989 41.4486L48.4999 41.4496V41.9486V46.6348C42.3806 47.1104 36.489 49.1785 31.4121 52.6374L31.4085 52.6398C30.2188 53.4654 29.0805 54.3625 27.9999 55.3262C26.9193 54.3625 25.781 53.4654 24.5913 52.6398L24.5878 52.6374C19.5108 49.1785 13.6193 47.1104 7.49992 46.6348V42.4176V42.1218L7.24087 41.9795L7.49992 23.8667ZM7.49992 23.8667V30.2399V30.7389L7.00092 30.7399C5.89374 30.7421 4.83275 31.1839 4.05122 31.9682C3.26969 32.7525 2.8316 33.815 2.83326 34.9222L2.83326 34.9229L2.83326 37.2656C2.83326 37.7643 3.06056 38.3071 3.46743 38.869C3.87083 39.4262 4.41938 39.9588 4.98518 40.4266C5.54858 40.8924 6.11447 41.282 6.54086 41.5557C6.75356 41.6922 6.93035 41.7992 7.05319 41.8715C7.11459 41.9077 7.16243 41.9352 7.19446 41.9534L7.23032 41.9736L7.23881 41.9783L7.2406 41.9793L7.24072 41.9794L7.49992 23.8667ZM53.6666 37.2656V34.9229C53.6685 33.6832 53.1779 32.4934 52.3028 31.6153C51.4277 30.7371 50.2397 30.2424 48.9999 30.2399L53.6666 37.2656ZM27.7044 50.3879L27.9999 50.6045L28.2955 50.3879C33.0733 46.8864 38.5894 44.5255 44.421 43.4862L44.8333 43.4127V42.9939V28.6416V28.0307L44.2344 28.1514C39.6419 29.0773 35.2817 30.9149 31.4118 33.5556L31.4118 33.5556L31.4085 33.5578C30.2188 34.3834 29.0805 35.2805 27.9999 36.2442C26.9193 35.2805 25.781 34.3834 24.5913 33.5578L24.588 33.5555C20.7179 30.9157 16.3577 29.0789 11.7653 28.1538L11.1666 28.0331V28.6439V42.9939V43.4127L11.5789 43.4862C17.4104 44.5255 22.9266 46.8864 27.7044 50.3879ZM26.1666 19.1666H29.8333V20.4999H26.1666V19.1666ZM26.1666 9.83325H29.8333V11.1666H26.1666V9.83325Z" fill="#3177D8" stroke="white"/>
<path d="M25.6666 23.3333H30.3333V25.6666H25.6666V23.3333ZM21 11.6666C21.6188 11.6666 22.2123 11.4208 22.6499 10.9832C23.0875 10.5456 23.3333 9.95209 23.3333 9.33325C23.3355 9.02929 23.2772 8.72793 23.1619 8.44669C23.0466 8.16545 22.8765 7.90993 22.6616 7.69499C22.4466 7.48006 22.1911 7.30998 21.9099 7.19467C21.6286 7.07935 21.3273 7.02108 21.0233 7.02325C20.7184 7.02172 20.4162 7.08025 20.134 7.19551C19.8517 7.31077 19.5949 7.4805 19.3782 7.695C18.9406 8.12821 18.6931 8.71751 18.69 9.33325C18.6869 9.949 18.9285 10.5408 19.3617 10.9783C19.7949 11.4159 20.3842 11.6635 21 11.6666Z" fill="#3177D8"/>
<path d="M35.0001 11.6667C36.2887 11.6667 37.3334 10.622 37.3334 9.33333C37.3334 8.04467 36.2887 7 35.0001 7C33.7114 7 32.6667 8.04467 32.6667 9.33333C32.6667 10.622 33.7114 11.6667 35.0001 11.6667Z" fill="#3177D8"/>
<path d="M18.6667 4.16667L18.6662 4.16667C17.9152 4.16742 17.1951 4.46612 16.664 4.99721C16.1329 5.52831 15.8342 6.24842 15.8334 6.9995V7L15.8334 11.6667L15.8334 11.6672C15.8342 12.4183 16.1329 13.1384 16.664 13.6695C17.1951 14.2005 17.9152 14.4992 18.6662 14.5H18.6667H37.3334H37.3339C38.085 14.4992 38.8051 14.2005 39.3362 13.6695C39.8673 13.1384 40.166 12.4183 40.1667 11.6672V11.6667V7V6.9995C40.166 6.24842 39.8673 5.52831 39.3362 4.99721C38.8051 4.46612 38.085 4.16742 37.3339 4.16667H37.3334L18.6667 4.16667ZM37.3329 18.1667H18.6672C16.9437 18.1649 15.2913 17.4795 14.0726 16.2608C12.8539 15.0422 12.1685 13.3898 12.1667 11.6664V7.00026C12.1685 5.27684 12.8539 3.6245 14.0726 2.40585C15.2913 1.1872 16.9436 0.501783 18.667 0.5H37.3332C39.0566 0.501783 40.7089 1.1872 41.9276 2.40585C43.1463 3.62456 43.8317 5.27699 43.8334 7.0005V11.6662C43.8317 13.3897 43.1463 15.0421 41.9276 16.2608C40.7089 17.4795 39.0564 18.1649 37.3329 18.1667Z" fill="#3177D8" stroke="white"/>
</svg>
