<svg width="47" height="38" viewBox="0 0 47 38" fill="none" xmlns="http://www.w3.org/2000/svg">
<path d="M3.475 10.875V11.025H3.625H43.375H43.525V10.875V7.5625C43.525 6.64419 43.1602 5.76349 42.5109 5.11414C41.8615 4.4648 40.9808 4.1 40.0625 4.1H6.9375C6.01919 4.1 5.13849 4.4648 4.48914 5.11414C3.8398 5.76349 3.475 6.64419 3.475 7.5625V10.875ZM3.625 14.0375H3.475V14.1875V30.75C3.475 31.6683 3.8398 32.549 4.48914 33.1984C5.13849 33.8477 6.01919 34.2125 6.9375 34.2125H40.0625C40.9808 34.2125 41.8615 33.8477 42.5109 33.1984C43.1602 32.549 43.525 31.6683 43.525 30.75V14.1875V14.0375H43.375H3.625ZM6.9375 1.0875H40.0625C41.7798 1.0875 43.4267 1.76969 44.641 2.98398C45.8553 4.19828 46.5375 5.84522 46.5375 7.5625V30.75C46.5375 32.4673 45.8553 34.1142 44.641 35.3285C43.4267 36.5428 41.7798 37.225 40.0625 37.225H6.9375C5.22022 37.225 3.57328 36.5428 2.35898 35.3285C1.14469 34.1142 0.4625 32.4673 0.4625 30.75V7.5625C0.4625 5.84522 1.14469 4.19828 2.35898 2.98398C3.57328 1.76969 5.22022 1.0875 6.9375 1.0875Z" fill="#3177D8" stroke="white" stroke-width="0.3"/>
</svg>
