<svg width="52" height="47" viewBox="0 0 52 47" fill="none" xmlns="http://www.w3.org/2000/svg">
<path d="M5.49992 14.8667C12.7978 15.3901 19.803 17.9672 25.7038 22.3054L25.9999 22.5232L26.2961 22.3054C32.1968 17.9672 39.202 15.3901 46.4999 14.8667V21.2399V21.7389L46.9989 21.7399C48.1061 21.7421 49.1671 22.1839 49.9486 22.9682C50.7302 23.7525 51.1683 24.815 51.1666 25.9222V25.9229V28.2656V28.2663C51.1683 29.3735 50.7302 30.436 49.9486 31.2203C49.1671 32.0046 48.1061 32.4464 46.9989 32.4486L46.4999 32.4496V32.9486V37.6348C40.3806 38.1104 34.489 40.1785 29.4121 43.6374L29.4085 43.6398C28.2188 44.4654 27.0805 45.3625 25.9999 46.3262C24.9193 45.3625 23.781 44.4654 22.5913 43.6398L22.5878 43.6374C17.5108 40.1785 11.6193 38.1104 5.49992 37.6348V33.4176V33.1218L5.24087 32.9795L5.49992 14.8667ZM5.49992 14.8667V21.2399V21.7389L5.00092 21.7399C3.89374 21.7421 2.83275 22.1839 2.05122 22.9682C1.26969 23.7525 0.831597 24.815 0.833257 25.9222L0.833258 25.9229L0.833257 28.2656C0.833257 28.7643 1.06056 29.3071 1.46743 29.869C1.87083 30.4262 2.41938 30.9588 2.98518 31.4266C3.54858 31.8924 4.11447 32.282 4.54086 32.5557C4.75356 32.6922 4.93035 32.7992 5.05319 32.8715C5.11459 32.9077 5.16243 32.9352 5.19446 32.9534L5.23032 32.9736L5.23881 32.9783L5.2406 32.9793L5.24072 32.9794L5.49992 14.8667ZM51.6666 28.2656V25.9229C51.6685 24.6832 51.1779 23.4934 50.3028 22.6153C49.4277 21.7371 48.2397 21.2424 46.9999 21.2399L51.6666 28.2656ZM25.7044 41.3879L25.9999 41.6045L26.2955 41.3879C31.0733 37.8864 36.5894 35.5255 42.421 34.4862L42.8333 34.4127V33.9939V19.6416V19.0307L42.2344 19.1514C37.6419 20.0773 33.2817 21.9149 29.4118 24.5556L29.4118 24.5556L29.4085 24.5578C28.2188 25.3834 27.0805 26.2805 25.9999 27.2442C24.9193 26.2805 23.781 25.3834 22.5913 24.5578L22.588 24.5555C18.7179 21.9157 14.3577 20.0789 9.76533 19.1538L9.16659 19.0331V19.6439V33.9939V34.4127L9.57886 34.4862C15.4104 35.5255 20.9266 37.8864 25.7044 41.3879ZM24.1666 10.1666H27.8333V11.4999H24.1666V10.1666ZM24.1666 0.833252H27.8333V2.16659H24.1666V0.833252Z" fill="#3177D8" stroke="white"/>
</svg>
