<svg width="51" height="51" viewBox="0 0 51 51" fill="none" xmlns="http://www.w3.org/2000/svg">
<path d="M44.3438 0.437744C42.742 0.437744 41.1675 1.06587 39.9594 2.27187L19.2188 22.9456L18.7581 23.4062L18.6325 24.0615L17.1878 31.3896L16.5387 34.4633L19.6103 33.8142L26.9384 32.3695L27.5938 32.2439L28.0544 31.7833L48.7281 11.0426C49.5939 10.1737 50.1832 9.068 50.4218 7.86478C50.6604 6.66156 50.5375 5.41465 50.0687 4.28113C49.5999 3.14761 48.8061 2.17819 47.7873 1.49499C46.7686 0.811796 45.5704 0.44539 44.3438 0.441931V0.437744ZM44.3438 4.49962C44.8358 4.49962 45.3153 4.75087 45.7842 5.21778C46.7181 6.15159 46.7181 7.16078 45.7842 8.09668L25.5 28.3767L21.8988 29.097L22.6211 25.4957L42.9053 5.21149C43.3722 4.74459 43.8517 4.49334 44.3438 4.49334V4.49962ZM0.375 8.74993V50.6249H42.25V23.0126L38.0625 27.2001V46.4374H4.5625V12.9374H23.7999L27.9874 8.74993H0.375Z" fill="#3177D8"/>
</svg>
