<svg width="56" height="45" viewBox="0 0 56 45" fill="none" xmlns="http://www.w3.org/2000/svg">
<path d="M48 36.01H8C6.93946 36.0089 5.92266 35.5872 5.17274 34.8373C4.42283 34.0873 4.00106 33.0705 4 32.01V4.01001C4.00106 2.94947 4.42283 1.93267 5.17274 1.18275C5.92266 0.432836 6.93946 0.0110687 8 0.0100098H48C49.0605 0.0110687 50.0773 0.432836 50.8273 1.18275C51.5772 1.93267 51.9989 2.94947 52 4.01001V32.01C51.9984 33.0704 51.5765 34.0869 50.8267 34.8367C50.0769 35.5865 49.0604 36.0084 48 36.01ZM8 4.01001V32.01H48V4.01001H8ZM0 40.01H56V44.01H0V40.01Z" fill="#3177D8"/>
</svg>
