<svg width="49" height="60" viewBox="0 0 49 60" fill="none" xmlns="http://www.w3.org/2000/svg">
<path d="M3.7 49.1999C3.7 50.1149 4.06348 50.9924 4.71048 51.6394C5.35748 52.2864 6.235 52.6499 7.15 52.6499H16.12C16.7514 53.885 17.5138 55.0408 18.3867 56.0999H7.15C5.32001 56.0999 3.56496 55.3729 2.27096 54.0789C0.976962 52.7849 0.25 51.0299 0.25 49.1999V7.7999C0.25 5.96991 0.976962 4.21487 2.27096 2.92087C3.56496 1.62686 5.32001 0.899902 7.15 0.899902H27.85C29.68 0.899902 31.435 1.62686 32.729 2.92087C34.023 4.21487 34.75 5.96991 34.75 7.7999V25.1258C33.6023 25.0224 32.4477 25.0224 31.3 25.1258V7.7999C31.3 6.88491 30.9365 6.00738 30.2895 5.36038C29.6425 4.71338 28.765 4.3499 27.85 4.3499H7.15C6.235 4.3499 5.35748 4.71338 4.71048 5.36038C4.06348 6.00738 3.7 6.88491 3.7 7.7999V49.1999ZM15.775 36.1106C16.6396 34.2323 17.805 32.5076 19.225 31.0046V18.8606L23.1787 22.8178C23.5026 23.1417 23.9419 23.3236 24.4 23.3236C24.8581 23.3236 25.2974 23.1417 25.6213 22.8178C25.9452 22.4938 26.1272 22.0545 26.1272 21.5965C26.1272 21.1384 25.9452 20.6991 25.6213 20.3752L18.7213 13.4752C18.5611 13.3145 18.3707 13.1871 18.1611 13.1001C17.9516 13.0131 17.7269 12.9684 17.5 12.9684C17.2731 12.9684 17.0484 13.0131 16.8389 13.1001C16.6293 13.1871 16.4389 13.3145 16.2787 13.4752L9.3787 20.3752C9.21832 20.5355 9.09109 20.7259 9.00429 20.9355C8.9175 21.145 8.87282 21.3696 8.87282 21.5965C8.87282 21.8233 8.9175 22.0479 9.00429 22.2574C9.09109 22.467 9.21832 22.6574 9.3787 22.8178C9.53908 22.9781 9.72949 23.1054 9.93904 23.1922C10.1486 23.279 10.3732 23.3236 10.6 23.3236C10.8268 23.3236 11.0514 23.279 11.261 23.1922C11.4705 23.1054 11.6609 22.9781 11.8213 22.8178L15.775 18.8641V36.1106ZM48.55 44.0249C48.55 48.1424 46.9143 52.0912 44.0028 55.0027C41.0913 57.9142 37.1425 59.5499 33.025 59.5499C28.9075 59.5499 24.9587 57.9142 22.0472 55.0027C19.1357 52.0912 17.5 48.1424 17.5 44.0249C17.5 39.9074 19.1357 35.9586 22.0472 33.0471C24.9587 30.1356 28.9075 28.4999 33.025 28.4999C37.1425 28.4999 41.0913 30.1356 44.0028 33.0471C46.9143 35.9586 48.55 39.9074 48.55 44.0249ZM41.1463 37.6286C40.9861 37.468 40.7957 37.3405 40.5861 37.2535C40.3766 37.1666 40.1519 37.1218 39.925 37.1218C39.6981 37.1218 39.4734 37.1666 39.2639 37.2535C39.0543 37.3405 38.8639 37.468 38.7037 37.6286L29.575 46.7608L27.3463 44.5286C27.0224 44.2047 26.5831 44.0227 26.125 44.0227C25.6669 44.0227 25.2276 44.2047 24.9037 44.5286C24.5798 44.8525 24.3978 45.2918 24.3978 45.7499C24.3978 46.208 24.5798 46.6473 24.9037 46.9712L28.3537 50.4212C28.5139 50.5818 28.7043 50.7093 28.9139 50.7963C29.1234 50.8832 29.3481 50.928 29.575 50.928C29.8019 50.928 30.0266 50.8832 30.2361 50.7963C30.4457 50.7093 30.6361 50.5818 30.7963 50.4212L41.1463 40.0712C41.3069 39.911 41.4344 39.7206 41.5214 39.511C41.6083 39.3015 41.6531 39.0768 41.6531 38.8499C41.6531 38.623 41.6083 38.3983 41.5214 38.1888C41.4344 37.9792 41.3069 37.7888 41.1463 37.6286Z" fill="#3177D8"/>
</svg>
